# Blender v2.90.1 OBJ File: 'untitled.blend'
# www.blender.org
mtllib gem.mtl
o Solid.001
v 0.500000 0.000000 0.000000
v -0.500000 0.000000 0.000000
v 0.000000 0.000000 -0.500000
v 0.000000 0.000000 0.500000
v 0.000000 1.000000 0.000000
v 0.000000 -1.000000 0.000000
vn 0.6667 0.3333 -0.6667
vn -0.6667 0.3333 -0.6667
vn -0.6667 0.3333 0.6667
vn 0.6667 0.3333 0.6667
vn 0.6667 -0.3333 -0.6667
vn -0.6667 -0.3333 -0.6667
vn -0.6667 -0.3333 0.6667
vn 0.6667 -0.3333 0.6667
usemtl Material
s off
f 5//1 1//1 3//1
f 5//2 3//2 2//2
f 5//3 2//3 4//3
f 5//4 4//4 1//4
f 6//5 3//5 1//5
f 6//6 2//6 3//6
f 6//7 4//7 2//7
f 6//8 1//8 4//8
